<svg xmlns="http://www.w3.org/2000/svg" xmlns:xlink="http://www.w3.org/1999/xlink" width="525" height="385" viewBox="0 0 525 385"><defs><style>.a,.g{fill:none;}.a{stroke:#d8d8d8;opacity:0.53;}.b,.e{fill:#f39b1d;}.c{fill:#707070;font-size:12px;}.c,.e,.f{font-family:Shabnam;}.d,.f{fill:#bdbdbd;}.e,.f{font-size:14px;}.g{stroke:#f39b1d;stroke-width:2px;}.h{opacity:0.37;fill:url(#a);}</style><linearGradient id="a" x1="0.5" x2="0.5" y2="0.948" gradientUnits="objectBoundingBox"><stop offset="0" stop-color="#f39b1d" stop-opacity="0.98"/><stop offset="1" stop-color="#f39b1d" stop-opacity="0.031"/></linearGradient></defs><g transform="translate(-238 -135)"><line class="a" x2="480" transform="translate(274.5 195.5)"/><line class="a" x2="480" transform="translate(274.5 245.5)"/><line class="a" x2="480" transform="translate(274.5 295.5)"/><line class="a" x2="480" transform="translate(274.5 345.5)"/><line class="a" x2="480" transform="translate(274.5 395.5)"/><line class="a" x2="480" transform="translate(274.5 445.5)"/><circle class="b" cx="4" cy="4" r="4" transform="translate(272 359)"/><circle class="b" cx="4" cy="4" r="4" transform="translate(333 342)"/><circle class="b" cx="4" cy="4" r="4" transform="translate(416 278)"/><circle class="b" cx="4" cy="4" r="4" transform="translate(500 394)"/><circle class="b" cx="4" cy="4" r="4" transform="translate(588 209)"/><circle class="b" cx="4" cy="4" r="4" transform="translate(668 395)"/><circle class="b" cx="4" cy="4" r="4" transform="translate(747 353)"/><text class="c" transform="translate(252 449)"><tspan x="0" y="0">۰</tspan></text><text class="c" transform="translate(247 349)"><tspan x="0" y="0">۲۰</tspan></text><text class="c" transform="translate(247 399)"><tspan x="0" y="0">۱۰</tspan></text><text class="c" transform="translate(336 467)"><tspan x="0" y="0">۵</tspan></text><text class="c" transform="translate(413 467)"><tspan x="0" y="0">۱۰</tspan></text><text class="c" transform="translate(497 467)"><tspan x="0" y="0">۱۵</tspan></text><text class="c" transform="translate(581 467)"><tspan x="0" y="0">۲۰</tspan></text><text class="c" transform="translate(665 467)"><tspan x="0" y="0">۲۵</tspan></text><text class="c" transform="translate(749 467)"><tspan x="0" y="0">۳۰</tspan></text><text class="c" transform="translate(247 299)"><tspan x="0" y="0">۳۰</tspan></text><text class="c" transform="translate(247 249)"><tspan x="0" y="0">۴۰</tspan></text><text class="c" transform="translate(247 199)"><tspan x="0" y="0">۵۰</tspan></text><circle class="b" cx="4" cy="4" r="4" transform="translate(612 507)"/><circle class="d" cx="4" cy="4" r="4" transform="translate(525 507)"/><circle class="d" cx="4" cy="4" r="4" transform="translate(416 507)"/><text class="e" transform="translate(576 514)"><tspan x="0" y="0">تکیت</tspan><tspan y="0" xml:space="preserve">   </tspan></text><text class="f" transform="translate(471 514)"><tspan x="0" y="0">دانشنامه</tspan></text><text class="f" transform="translate(390 514)"><tspan x="0" y="0">خبر</tspan></text><text class="f" transform="translate(238 148)"><tspan x="0" y="0">تعداد</tspan></text><path class="g" d="M751.482,357.307l-78.744,42.331L592.173,212.563,504.186,397.747,420.5,281.5l-83.331,64.424L276,363"/><path class="h" d="M337,345.5l83.575-64.206,83.3,116.068,88.758-184.343,79.654,186.619,81.475-43.7v90.123H274.921V363.224"/></g></svg>